<svg xmlns="http://www.w3.org/2000/svg" xmlns:xlink="http://www.w3.org/1999/xlink" version="1.1" viewBox="0 0 1705 1806" style="background: #ffffff"><defs><style>@import url(https://fonts.googleapis.com/css?family=Open+Sans:400,700);</style></defs><defs joint-selector="defs"></defs><g joint-selector="layers"  transform="matrix(1,0,0,1,0,0)"><g ></g><g ><g   id="j_502"  transform="translate(20,1768.5)"><g id="v-6425"><text  id="v-6426" font-size="22px" xml:space="preserve" y="0.8em" font-weight="normal" text-anchor="start" fill="#aaaaaa" pointer-events="none" display="block" font-family="Open Sans"><tspan dy="0" >Montag, 1. Juli 2024 um 13:37 Mitteleuropäische Sommerzeit</tspan></text></g></g><g   id="j_501"  transform="translate(20,1723.5)"><g id="v-6423"><text  id="v-6424" font-size="36px" xml:space="preserve" y="0.8em" font-weight="normal" text-anchor="start" fill="#000000" pointer-events="none" display="block" font-family="Open Sans"><tspan dy="0" >[Component] IAM - SCH Realm</tspan></text></g></g><g   id="j_506"  transform="translate(200,719)" style=""><g  id="v-6455" style="opacity: 1;"><rect  id="v-6456" rx="20" ry="20" stroke="#338f52" stroke-width="2" pointer-events="visiblePainted" fill="#339955" width="450" height="300" style="fill: rgb(51, 153, 85); stroke: rgb(51, 143, 82);"></rect><text  id="v-6457" font-size="34" xml:space="preserve" y="0.8em" font-weight="bold" text-anchor="middle" pointer-events="visible" font-family="Open Sans" fill="#ffffff" transform="matrix(1,0,0,1,225,98.1)" style="fill: rgb(255, 255, 255);"><tspan dy="0" >HELD</tspan></text><text  id="v-6458" font-size="17" xml:space="preserve" y="0.8em" text-anchor="middle" font-family="Open Sans" fill="#ffffff" transform="matrix(1,0,0,1,225,140.6)" style="fill: rgb(255, 255, 255);"><tspan dy="0" >[Software System]</tspan></text><text  id="v-6459" font-size="24" xml:space="preserve" y="0.8em" text-anchor="middle" font-family="Open Sans" fill="#ffffff" transform="matrix(1,0,0,1,225,171.9)" style="fill: rgb(255, 255, 255);"><tspan dy="0" >Heldenhelfer Applications</tspan></text><g  id="v-6460" color="#ffffff" transform="matrix(1,0,0,1,210,211.9)" display="none" style="fill: rgb(255, 255, 255);"><g  transform="translate(5 0)"><svg xmlns="http://www.w3.org/2000/svg" width="20" height="20" fill="currentColor" viewBox="0 0 16 16"><path fill-rule="evenodd" d="M6.5 12a5.5 5.5 0 1 0 0-11 5.5 5.5 0 0 0 0 11zM13 6.5a6.5 6.5 0 1 1-13 0 6.5 6.5 0 0 1 13 0z"></path><path d="M10.344 11.742c.03.04.062.078.098.115l3.85 3.85a1 1 0 0 0 1.415-1.414l-3.85-3.85a1.007 1.007 0 0 0-.115-.1 6.538 6.538 0 0 1-1.398 1.4z"></path><path fill-rule="evenodd" d="M6.5 3a.5.5 0 0 1 .5.5V6h2.5a.5.5 0 0 1 0 1H7v2.5a.5.5 0 0 1-1 0V7H3.5a.5.5 0 0 1 0-1H6V3.5a.5.5 0 0 1 .5-.5z"></path></svg></g><g ></g><g ></g><g ></g></g><image  id="v-6461"></image></g></g><g   id="j_504"  transform="translate(1010,199)" style=""><g id="v-6437"><rect  id="v-6438" width="495" height="1406" rx="0" ry="0" fill="#ffffff" stroke="#3c7fc0" stroke-width="1" stroke-dasharray="20,20" pointer-events="none"></rect><text  id="v-6439" font-size="24px" xml:space="preserve" y="1367" font-weight="normal" fill="#3c7fc0" text-anchor="start" pointer-events="visible" font-family="Open Sans" transform="matrix(1,0,0,1,15,0)"><tspan dy="0" >SCH Realm</tspan></text><text  id="v-6440" font-size="17px" xml:space="preserve" y="1391" font-weight="normal" fill="#3c7fc0" text-anchor="start" pointer-events="visible" font-family="Open Sans" transform="matrix(1,0,0,1,15,0)"><tspan dy="0" >[Container]</tspan></text><image  id="v-6441" pointer-events="visible"></image></g></g><g   id="j_503"  transform="translate(1030,704)" style=""><g  id="v-6430" style="opacity: 1;"><rect  id="v-6431" rx="20" ry="20" stroke="#78a8d8" stroke-width="2" pointer-events="visiblePainted" fill="#85bbf0" width="450" height="300" style="fill: rgb(133, 187, 240); stroke: rgb(120, 168, 216);"></rect><text  id="v-6432" font-size="34" xml:space="preserve" y="0.8em" font-weight="bold" text-anchor="middle" pointer-events="visible" font-family="Open Sans" fill="#000000" transform="matrix(1,0,0,1,225,98.1)" style="fill: rgb(0, 0, 0);"><tspan dy="0" >Digital Office Application</tspan></text><text  id="v-6433" font-size="17" xml:space="preserve" y="0.8em" text-anchor="middle" font-family="Open Sans" fill="#000000" transform="matrix(1,0,0,1,225,140.6)" style="fill: rgb(0, 0, 0);"><tspan dy="0" >[Component]</tspan></text><text  id="v-6434" font-size="24" xml:space="preserve" y="0.8em" text-anchor="middle" font-family="Open Sans" fill="#000000" transform="matrix(1,0,0,1,225,171.9)" style="fill: rgb(0, 0, 0);"><tspan dy="0" >Keycloak Client</tspan></text><g  id="v-6435" color="#000000" transform="matrix(1,0,0,1,222.5,211.9)" display="none" style="fill: rgb(0, 0, 0);"><g ></g><g ></g><g ></g><g ></g></g><image  id="v-6436"></image></g></g><g   id="j_505"  transform="translate(1030,1214)" style=""><g  id="v-6445" style="opacity: 1;"><rect  id="v-6446" rx="20" ry="20" stroke="#78a8d8" stroke-width="2" pointer-events="visiblePainted" fill="#85bbf0" width="450" height="300" style="fill: rgb(133, 187, 240); stroke: rgb(120, 168, 216);"></rect><text  id="v-6447" font-size="34" xml:space="preserve" y="0.8em" font-weight="bold" text-anchor="middle" pointer-events="visible" font-family="Open Sans" fill="#000000" transform="matrix(1,0,0,1,225,98.1)" style="fill: rgb(0, 0, 0);"><tspan dy="0" >Club Forum Application</tspan></text><text  id="v-6448" font-size="17" xml:space="preserve" y="0.8em" text-anchor="middle" font-family="Open Sans" fill="#000000" transform="matrix(1,0,0,1,225,140.6)" style="fill: rgb(0, 0, 0);"><tspan dy="0" >[Component]</tspan></text><text  id="v-6449" font-size="24" xml:space="preserve" y="0.8em" text-anchor="middle" font-family="Open Sans" fill="#000000" transform="matrix(1,0,0,1,225,171.9)" style="fill: rgb(0, 0, 0);"><tspan dy="0" >Keycloak Client</tspan></text><g  id="v-6450" color="#000000" transform="matrix(1,0,0,1,222.5,211.9)" display="none" style="fill: rgb(0, 0, 0);"><g ></g><g ></g><g ></g><g ></g></g><image  id="v-6451"></image></g></g><g   id="j_507"  transform="translate(1035,219)" style=""><g  id="v-6465" style="opacity: 1;"><rect  id="v-6466" rx="20" ry="20" stroke="#78a8d8" stroke-width="2" pointer-events="visiblePainted" fill="#85bbf0" width="450" height="300" style="fill: rgb(133, 187, 240); stroke: rgb(120, 168, 216);"></rect><text  id="v-6467" font-size="34" xml:space="preserve" y="0.8em" font-weight="bold" text-anchor="middle" pointer-events="visible" font-family="Open Sans" fill="#000000" transform="matrix(1,0,0,1,225,98.1)" style="fill: rgb(0, 0, 0);"><tspan dy="0" >Hero Portal Application</tspan></text><text  id="v-6468" font-size="17" xml:space="preserve" y="0.8em" text-anchor="middle" font-family="Open Sans" fill="#000000" transform="matrix(1,0,0,1,225,140.6)" style="fill: rgb(0, 0, 0);"><tspan dy="0" >[Component]</tspan></text><text  id="v-6469" font-size="24" xml:space="preserve" y="0.8em" text-anchor="middle" font-family="Open Sans" fill="#000000" transform="matrix(1,0,0,1,225,171.9)" style="fill: rgb(0, 0, 0);"><tspan dy="0" >Keycloak client</tspan></text><g  id="v-6470" color="#000000" transform="matrix(1,0,0,1,222.5,211.9)" display="none" style="fill: rgb(0, 0, 0);"><g ></g><g ></g><g ></g><g ></g></g><image  id="v-6471"></image></g></g><g   id="j_508" ><path  stroke="#707070" d="M 650 734 L 1035 504" id="v-6487" stroke-width="2" stroke-dasharray="30 30" fill="none" style="opacity: 1;"></path><path  fill="black" stroke="black" d="M 0 0 0 0" transform="matrix(0.8579448579322639,-0.5137417841168727,0.5137417841168727,0.8579448579322639,650,734.27001953125)"></path><path  fill="#707070" stroke="#707070" d="M 20 0 L 0 10 L 20 20 z" id="v-6489" transform="matrix(-0.857944857932264,0.5137417841168725,-0.5137417841168725,-0.857944857932264,1040.1373986470537,512.309462378779)" style="opacity: 1;"></path><path  d="M 650 734 L 1035 504" id="v-6488" fill="none" style="cursor: default;"></path><g ><g id="v-6478"  label-idx="0" cursor="move" transform="matrix(1,0,0,1,842.5,619)" style="cursor: default; opacity: 1;"><rect joint-selector="rect" id="v-6482" fill="#ffffff" rx="3" ry="3" pointer-events="none" width="120.19416046142578" height="61.96296501159668" transform="matrix(1,0,0,1,-60.1,-31)"></rect><text joint-selector="text" id="v-6481" font-size="24px" xml:space="preserve" y="0.8em" fill="#707070" text-anchor="middle" pointer-events="none" font-family="Open Sans" font-weight="normal" transform="matrix(1,0,0,1,0,-23.9)"><tspan dy="0" >Get Access</tspan><tspan dy="1.2em" x="0" >Tokens</tspan></text></g><g id="v-6479"  label-idx="1" cursor="move" transform="matrix(1,0,0,1,842.5,661)" style="cursor: default; opacity: 1;"><rect joint-selector="rect" id="v-6484" fill="#ffffff" rx="3" ry="3" pointer-events="none" width="79.88475036621094" height="23.490434646606445" transform="matrix(1,0,0,1,-39.9,-11.8)"></rect><text joint-selector="text" id="v-6483" font-size="17px" xml:space="preserve" y="0.8em" fill="#707070" text-anchor="middle" pointer-events="none" font-family="Open Sans" font-weight="normal" transform="matrix(1,0,0,1,0,-7.4)"><tspan dy="0" >[REST API]</tspan></text></g><g id="v-6480"  label-idx="2" cursor="move" transform="matrix(1,0,0,1,832.5,670.25)" style="cursor: default; opacity: 1;"><rect joint-selector="rect" id="v-6486" fill="#ffffff" rx="3" ry="3"  width="0" height="0" transform="matrix(1,0,0,1,0,0)" display="none"></rect><text joint-selector="text" id="v-6485" fill="#000000" font-size="14" text-anchor="middle" pointer-events="none"></text></g></g><g  display="none"></g><g  id="v-6491" display="none"><g  id="v-6476"><path  end="source" d="M 26 0 L 0 13 L 26 26 z"></path></g><g  id="v-6477"><path  end="target" d="M 26 0 L 0 13 L 26 26 z"></path></g></g><g  id="v-6490" display="none"><g  id="v-6475" transform="translate(684.3390038380076, 713.4857899149565) "><g  event="remove"><circle r="11"></circle><path transform="scale(.8) translate(-16, -16)" d="M24.778,21.419 19.276,15.917 24.777,10.415 21.949,7.585 16.447,13.087 10.945,7.585 8.117,10.415 13.618,15.917 8.116,21.419 10.946,24.248 16.447,18.746 21.948,24.248z"></path><title>Remove link.</title></g><g  event="link:options"><circle r="11" transform="translate(25)"></circle><path fill="white" transform="scale(.55) translate(29, -16)" d="M31.229,17.736c0.064-0.571,0.104-1.148,0.104-1.736s-0.04-1.166-0.104-1.737l-4.377-1.557c-0.218-0.716-0.504-1.401-0.851-2.05l1.993-4.192c-0.725-0.91-1.549-1.734-2.458-2.459l-4.193,1.994c-0.647-0.347-1.334-0.632-2.049-0.849l-1.558-4.378C17.165,0.708,16.588,0.667,16,0.667s-1.166,0.041-1.737,0.105L12.707,5.15c-0.716,0.217-1.401,0.502-2.05,0.849L6.464,4.005C5.554,4.73,4.73,5.554,4.005,6.464l1.994,4.192c-0.347,0.648-0.632,1.334-0.849,2.05l-4.378,1.557C0.708,14.834,0.667,15.412,0.667,16s0.041,1.165,0.105,1.736l4.378,1.558c0.217,0.715,0.502,1.401,0.849,2.049l-1.994,4.193c0.725,0.909,1.549,1.733,2.459,2.458l4.192-1.993c0.648,0.347,1.334,0.633,2.05,0.851l1.557,4.377c0.571,0.064,1.148,0.104,1.737,0.104c0.588,0,1.165-0.04,1.736-0.104l1.558-4.377c0.715-0.218,1.399-0.504,2.049-0.851l4.193,1.993c0.909-0.725,1.733-1.549,2.458-2.458l-1.993-4.193c0.347-0.647,0.633-1.334,0.851-2.049L31.229,17.736zM16,20.871c-2.69,0-4.872-2.182-4.872-4.871c0-2.69,2.182-4.872,4.872-4.872c2.689,0,4.871,2.182,4.871,4.872C20.871,18.689,18.689,20.871,16,20.871z"></path><title>Link options.</title></g></g></g></g><g   id="j_509" ><path  stroke="#707070" d="M 650 1003 L 1030 1230" id="v-6507" stroke-width="2" stroke-dasharray="30 30" fill="none" style="opacity: 1;"></path><path  fill="black" stroke="black" d="M 0 0 0 0" transform="matrix(0.858865899522985,0.5122005140924537,-0.5122005140924537,0.858865899522985,650,1003.1900024414062)"></path><path  fill="#707070" stroke="#707070" d="M 20 0 L 0 10 L 20 20 z" id="v-6509" transform="matrix(-0.858865899522985,-0.5122005140924536,0.5122005140924536,-0.858865899522985,1024.877969772274,1238.3986524174043)" style="opacity: 1;"></path><path  d="M 650 1003 L 1030 1230" id="v-6508" fill="none" style="cursor: default;"></path><g ><g id="v-6498"  label-idx="0" cursor="move" transform="matrix(1,0,0,1,840,1116.5)" style="cursor: default; opacity: 1;"><rect joint-selector="rect" id="v-6502" fill="#ffffff" rx="3" ry="3" pointer-events="none" width="178.01345825195312" height="61.96296501159668" transform="matrix(1,0,0,1,-89,-31)"></rect><text joint-selector="text" id="v-6501" font-size="24px" xml:space="preserve" y="0.8em" fill="#707070" text-anchor="middle" pointer-events="none" font-family="Open Sans" font-weight="normal" transform="matrix(1,0,0,1,0,-23.9)"><tspan dy="0" >Authenticates/</tspan><tspan dy="1.2em" x="0" >Authorizes User</tspan></text></g><g id="v-6499"  label-idx="1" cursor="move" transform="matrix(1,0,0,1,840,1158.5)" style="cursor: default; opacity: 1;"><rect joint-selector="rect" id="v-6504" fill="#ffffff" rx="3" ry="3" pointer-events="none" width="141.71986389160156" height="23.490434646606445" transform="matrix(1,0,0,1,-70.9,-11.8)"></rect><text joint-selector="text" id="v-6503" font-size="17px" xml:space="preserve" y="0.8em" fill="#707070" text-anchor="middle" pointer-events="none" font-family="Open Sans" font-weight="normal" transform="matrix(1,0,0,1,0,-7.4)"><tspan dy="0" >[OpenID Connect]</tspan></text></g><g id="v-6500"  label-idx="2" cursor="move" transform="matrix(1,0,0,1,830,1167.75)" style="cursor: default; opacity: 1;"><rect joint-selector="rect" id="v-6506" fill="#ffffff" rx="3" ry="3"  width="0" height="0" transform="matrix(1,0,0,1,0,0)" display="none"></rect><text joint-selector="text" id="v-6505" fill="#000000" font-size="14" text-anchor="middle" pointer-events="none"></text></g></g><g  display="none"></g><g  id="v-6511" display="none"><g  id="v-6496"><path  end="source" d="M 26 0 L 0 13 L 26 26 z"></path></g><g  id="v-6497"><path  end="target" d="M 26 0 L 0 13 L 26 26 z"></path></g></g><g  id="v-6510" display="none"><g  id="v-6495" transform="translate(684.339520531817, 1023.5133451597959) "><g  event="remove"><circle r="11"></circle><path transform="scale(.8) translate(-16, -16)" d="M24.778,21.419 19.276,15.917 24.777,10.415 21.949,7.585 16.447,13.087 10.945,7.585 8.117,10.415 13.618,15.917 8.116,21.419 10.946,24.248 16.447,18.746 21.948,24.248z"></path><title>Remove link.</title></g><g  event="link:options"><circle r="11" transform="translate(25)"></circle><path fill="white" transform="scale(.55) translate(29, -16)" d="M31.229,17.736c0.064-0.571,0.104-1.148,0.104-1.736s-0.04-1.166-0.104-1.737l-4.377-1.557c-0.218-0.716-0.504-1.401-0.851-2.05l1.993-4.192c-0.725-0.91-1.549-1.734-2.458-2.459l-4.193,1.994c-0.647-0.347-1.334-0.632-2.049-0.849l-1.558-4.378C17.165,0.708,16.588,0.667,16,0.667s-1.166,0.041-1.737,0.105L12.707,5.15c-0.716,0.217-1.401,0.502-2.05,0.849L6.464,4.005C5.554,4.73,4.73,5.554,4.005,6.464l1.994,4.192c-0.347,0.648-0.632,1.334-0.849,2.05l-4.378,1.557C0.708,14.834,0.667,15.412,0.667,16s0.041,1.165,0.105,1.736l4.378,1.558c0.217,0.715,0.502,1.401,0.849,2.049l-1.994,4.193c0.725,0.909,1.549,1.733,2.459,2.458l4.192-1.993c0.648,0.347,1.334,0.633,2.05,0.851l1.557,4.377c0.571,0.064,1.148,0.104,1.737,0.104c0.588,0,1.165-0.04,1.736-0.104l1.558-4.377c0.715-0.218,1.399-0.504,2.049-0.851l4.193,1.993c0.909-0.725,1.733-1.549,2.458-2.458l-1.993-4.193c0.347-0.647,0.633-1.334,0.851-2.049L31.229,17.736zM16,20.871c-2.69,0-4.872-2.182-4.872-4.871c0-2.69,2.182-4.872,4.872-4.872c2.689,0,4.871,2.182,4.871,4.872C20.871,18.689,18.689,20.871,16,20.871z"></path><title>Link options.</title></g></g></g></g><g   id="j_510" ><path  stroke="#707070" d="M 650 865 L 1030 858" id="v-6524" stroke-width="2" stroke-dasharray="30 30" fill="none" style="opacity: 1;"></path><path  fill="black" stroke="black" d="M 0 0 0 0" transform="matrix(0.999837086822305,-0.01804992561443182,0.01804992561443182,0.999837086822305,650,864.9299926757812)"></path><path  fill="#707070" stroke="#707070" d="M 20 0 L 0 10 L 20 20 z" id="v-6526" transform="matrix(-0.9998370916292555,0.01804965934170874,-0.01804965934170874,-0.9998370916292555,1030.180515458928,868.0683626041255)" style="opacity: 1;"></path><path  d="M 650 865 L 1030 858" id="v-6525" fill="none" style="cursor: default;"></path><g ><g id="v-6518"  label-idx="0" cursor="move" transform="matrix(1,0,0,1,840,861.5)" style="cursor: default; opacity: 1;"><rect joint-selector="rect" id="v-6521" fill="#ffffff" rx="3" ry="3" pointer-events="none" width="144.720947265625" height="90.76296997070312" transform="matrix(1,0,0,1,-72.4,-45.4)"></rect><text joint-selector="text" id="v-6520" font-size="24px" xml:space="preserve" y="0.8em" fill="#707070" text-anchor="middle" pointer-events="none" font-family="Open Sans" font-weight="normal" transform="matrix(1,0,0,1,0,-38.3)"><tspan dy="0" >Create and</tspan><tspan dy="1.2em" x="0" >Assign group</tspan><tspan dy="1.2em" x="0" >roles</tspan></text></g><g id="v-6519"  label-idx="1" cursor="move" transform="matrix(1,0,0,1,830,918.5)" style="cursor: default; opacity: 1;"><rect joint-selector="rect" id="v-6523" fill="#ffffff" rx="3" ry="3"  width="0" height="0" transform="matrix(1,0,0,1,0,0)" display="none"></rect><text joint-selector="text" id="v-6522" fill="#000000" font-size="14" text-anchor="middle" pointer-events="none"></text></g></g><g  display="none"></g><g  id="v-6528" display="none"><g  id="v-6516"><path  end="source" d="M 26 0 L 0 13 L 26 26 z"></path></g><g  id="v-6517"><path  end="target" d="M 26 0 L 0 13 L 26 26 z"></path></g></g><g  id="v-6527" display="none"><g  id="v-6515" transform="translate(689.993215023136, 864.2632828811528) "><g  event="remove"><circle r="11"></circle><path transform="scale(.8) translate(-16, -16)" d="M24.778,21.419 19.276,15.917 24.777,10.415 21.949,7.585 16.447,13.087 10.945,7.585 8.117,10.415 13.618,15.917 8.116,21.419 10.946,24.248 16.447,18.746 21.948,24.248z"></path><title>Remove link.</title></g><g  event="link:options"><circle r="11" transform="translate(25)"></circle><path fill="white" transform="scale(.55) translate(29, -16)" d="M31.229,17.736c0.064-0.571,0.104-1.148,0.104-1.736s-0.04-1.166-0.104-1.737l-4.377-1.557c-0.218-0.716-0.504-1.401-0.851-2.05l1.993-4.192c-0.725-0.91-1.549-1.734-2.458-2.459l-4.193,1.994c-0.647-0.347-1.334-0.632-2.049-0.849l-1.558-4.378C17.165,0.708,16.588,0.667,16,0.667s-1.166,0.041-1.737,0.105L12.707,5.15c-0.716,0.217-1.401,0.502-2.05,0.849L6.464,4.005C5.554,4.73,4.73,5.554,4.005,6.464l1.994,4.192c-0.347,0.648-0.632,1.334-0.849,2.05l-4.378,1.557C0.708,14.834,0.667,15.412,0.667,16s0.041,1.165,0.105,1.736l4.378,1.558c0.217,0.715,0.502,1.401,0.849,2.049l-1.994,4.193c0.725,0.909,1.549,1.733,2.459,2.458l4.192-1.993c0.648,0.347,1.334,0.633,2.05,0.851l1.557,4.377c0.571,0.064,1.148,0.104,1.737,0.104c0.588,0,1.165-0.04,1.736-0.104l1.558-4.377c0.715-0.218,1.399-0.504,2.049-0.851l4.193,1.993c0.909-0.725,1.733-1.549,2.458-2.458l-1.993-4.193c0.347-0.647,0.633-1.334,0.851-2.049L31.229,17.736zM16,20.871c-2.69,0-4.872-2.182-4.872-4.871c0-2.69,2.182-4.872,4.872-4.872c2.689,0,4.871,2.182,4.871,4.872C20.871,18.689,18.689,20.871,16,20.871z"></path><title>Link options.</title></g></g></g></g></g><g ></g><g ></g><g ></g></g></svg>